<?xml version="1.0" encoding="UTF-8"?> <svg xmlns="http://www.w3.org/2000/svg" width="205" height="297" viewBox="0 0 205 297" fill="none"> <path fill-rule="evenodd" clip-rule="evenodd" d="M56.219 15.9514L36.8644 25.5049C-34.8239 62.8774 71.4897 284.687 152.076 284.687C157.768 284.687 163.263 283.524 168.374 281.172L187.456 271.829L151.593 202.603L132.536 211.934C130.296 213.011 127.784 213.593 125.148 213.593C93.4553 213.593 40.4903 112.068 72.6653 94.842L91.7971 85.3999L56.219 15.9514V15.9514ZM152.076 297C81.7857 297 0.84082 159.464 0.84082 76.329C0.84082 46.3939 11.1492 25.0223 31.2462 14.553L60.7234 0L108.454 90.9191L78.2959 105.782C60.4883 115.335 108.107 210.029 127.251 200.822L156.939 186.231L204.162 277.311C204.162 277.311 174.957 291.691 173.522 292.347C166.752 295.453 159.55 297 152.076 297" fill="white"></path> </svg> 