<?xml version="1.0" encoding="UTF-8"?> <svg xmlns="http://www.w3.org/2000/svg" width="199" height="297" viewBox="0 0 199 297" fill="none"> <path fill-rule="evenodd" clip-rule="evenodd" d="M99.5 123.75C85.838 123.75 74.75 112.662 74.75 99C74.75 85.338 85.838 74.25 99.5 74.25C113.162 74.25 124.25 85.338 124.25 99C124.25 112.662 113.162 123.75 99.5 123.75ZM99.5 61.875C78.9946 61.875 62.375 78.4946 62.375 99C62.375 119.505 78.9946 136.125 99.5 136.125C120.005 136.125 136.625 119.505 136.625 99C136.625 78.4946 120.005 61.875 99.5 61.875ZM12.875 94.0748C12.875 50.5519 53.3536 12.375 99.5 12.375C145.646 12.375 186.125 50.5519 186.125 94.0748C186.125 136.83 154.408 187.419 99.5 273.846C43.9486 186.318 12.875 136.83 12.875 94.0748V94.0748ZM99.5 0C47.5498 0 0.5 42.1121 0.5 94.0748C0.5 146.025 43.4289 208.048 99.5 297C155.571 208.048 198.5 146.025 198.5 94.0748C198.5 42.1121 151.463 0 99.5 0" fill="white"></path> </svg> 